<svg xmlns="http://www.w3.org/2000/svg" viewBox="0 0 390 220" preserveAspectRatio="xMidYMid meet">
  <g id="micro-stars" fill="#000000">
    <circle cx="14" cy="72" r="0.6" opacity="0.13"/><circle cx="29" cy="191" r="0.9" opacity="0.2"/><circle cx="48" cy="25" r="0.7" opacity="0.15"/><circle cx="73" cy="127" r="1.1" opacity="0.23"/><circle cx="101" cy="55" r="0.5" opacity="0.12"/><circle cx="124" cy="203" r="0.8" opacity="0.18"/><circle cx="149" cy="101" r="0.7" opacity="0.16"/><circle cx="174" cy="31" r="1" opacity="0.22"/><circle cx="198" cy="162" r="0.6" opacity="0.14"/><circle cx="224" cy="78" r="0.8" opacity="0.19"/><circle cx="249" cy="210" r="0.6" opacity="0.13"/><circle cx="273" cy="128" r="1" opacity="0.21"/><circle cx="301" cy="43" r="0.7" opacity="0.16"/><circle cx="328" cy="180" r="0.9" opacity="0.2"/><circle cx="352" cy="96" r="0.6" opacity="0.14"/><circle cx="379" cy="24" r="0.8" opacity="0.18"/>
  </g>
  <g id="angular-stars" fill="#000000">
    <path d="M43 149l1.4 4.6 4.6 1.4-4.6 1.4L43 161l-1.4-4.6L37 155l4.6-1.4z" opacity="0.28"/>
    <path d="M187 112l2 5 5 2-5 2-2 5-2-5-5-2 5-2z" opacity="0.3"/>
    <path d="M341 57l1.2 3.8 3.8 1.2-3.8 1.2-1.2 3.8-1.2-3.8-3.8-1.2 3.8-1.2z" opacity="0.25"/>
    <path d="M93 85l3 3-3 3-3-3zM292 87l2.5 2.5-2.5 2.5-2.5-2.5z" opacity="0.2"/>
  </g>
  <g id="slender-crosses" stroke="#000000" stroke-width="0.75" opacity="0.21">
    <path d="M139 17v11M133.5 22.5h11M239 146v13M232.5 152.5h13M369 153v9M364.5 157.5h9"/>
  </g>
</svg>